<?xml version="1.0" encoding="UTF-8" standalone="no"?>
<!-- Created with Inkscape (http://www.inkscape.org/) -->

<svg
   xmlns:dc="http://purl.org/dc/elements/1.1/"
   xmlns:cc="http://creativecommons.org/ns#"
   xmlns:rdf="http://www.w3.org/1999/02/22-rdf-syntax-ns#"
   xmlns:svg="http://www.w3.org/2000/svg"
   xmlns="http://www.w3.org/2000/svg"
   xmlns:sodipodi="http://sodipodi.sourceforge.net/DTD/sodipodi-0.dtd"
   xmlns:inkscape="http://www.inkscape.org/namespaces/inkscape"
   width="40"
   height="40"
   viewBox="0 0 40 40"
   version="1.1"
   id="SVGRoot"
   inkscape:version="0.92.3 (2405546, 2018-03-11)"
   sodipodi:docname="dlanguage.svg">
  <sodipodi:namedview
     id="base"
     pagecolor="#ffffff"
     bordercolor="#666666"
     borderopacity="1.0"
     inkscape:pageopacity="0.0"
     inkscape:pageshadow="2"
     inkscape:zoom="20.6"
     inkscape:cx="20"
     inkscape:cy="20"
     inkscape:document-units="px"
     inkscape:current-layer="layer7"
     showgrid="false"
     inkscape:window-width="1920"
     inkscape:window-height="1016"
     inkscape:window-x="0"
     inkscape:window-y="27"
     inkscape:window-maximized="1"
     inkscape:grid-bbox="true" />
  <defs
     id="defs249" />
  <metadata
     id="metadata252">
    <rdf:RDF>
      <cc:Work
         rdf:about="">
        <dc:format>image/svg+xml</dc:format>
        <dc:type
           rdf:resource="http://purl.org/dc/dcmitype/StillImage" />
        <dc:title></dc:title>
      </cc:Work>
    </rdf:RDF>
  </metadata>
  <g
     inkscape:groupmode="layer"
     id="layer7"
     inkscape:label="blue"
     style="display:inline"
     transform="translate(0,-216)"
     sodipodi:insensitive="true">
    <g
       style="display:inline"
       id="g485"
       transform="matrix(0.15625,0,0,0.15625,0,216)">
      <path
         style="fill:#d0f4ea;stroke-width:0.5"
         d="m 11.39137,251.14447 c -0.497738,-0.12259 -0.980318,-0.88041 -1.148148,-1.80298 -0.159236,-0.87532 -0.222853,-23.46657 -0.141371,-50.20278 C 10.2477,151.28226 10.265528,150.51242 11.25,149.56096 12.727143,148.13333 48.055382,122.5 48.545808,122.5 c 1.305171,0 1.485007,2.65318 1.347206,19.87579 L 49.75,160.25 34.982952,193.5 c -8.121877,18.2875 -14.534377,33.31178 -14.25,33.3873 C 21.017329,226.9628 35.875,222.35726 53.75,216.65273 l 32.5,-10.37188 23,-0.16611 c 12.65,-0.0914 23.73125,-0.0319 24.625,0.13223 0.96079,0.1764 1.625,0.59867 1.625,1.03311 0,0.40412 -3.79532,8.46953 -8.43404,17.92313 -7.78489,15.86541 -8.54494,17.21151 -9.875,17.48914 -1.54468,0.32243 -12.35389,1.22244 -66.44096,5.53207 -18.975,1.51192 -35.4,2.83503 -36.5,2.94024 -1.1,0.10522 -2.386384,0.0961 -2.85863,-0.0202 z m 195.14248,-74.58122 c -0.29361,-0.54863 -0.5328,-2.98105 -0.53152,-5.40538 0.002,-4.24695 0.42851,-5.90109 11.67568,-45.30855 6.42035,-22.49538 11.91095,-41.138285 12.20135,-41.42868 1.24482,-1.24482 1.78921,2.59022 3.62148,25.51211 1.60649,20.0972 1.80388,24.05153 1.26381,25.31725 -0.86781,2.03376 -26.66907,41.95971 -27.24199,42.15538 -0.25023,0.0855 -0.69519,-0.2935 -0.98881,-0.84213 z M 37.631326,79.839515 C 28.460103,74.77337 27.487023,74.10955 27.238944,72.75 26.861891,70.683635 27.667417,29.164752 28.092801,28.740012 28.809604,28.024297 93.78815,4.4848086 94.53965,4.6686092 c 0.709375,0.1734987 39.16139,23.7231338 47.65653,29.1868668 2.9307,1.884912 3.34205,2.31876 2.75,2.900452 C 144.56328,37.132131 135.5875,40.20408 125,43.582482 L 105.75,49.725031 77.875,49.878546 50,50.03206 49.9932,66.64103 c -0.0038,9.134935 -0.142497,17.11522 -0.308315,17.73397 -0.165819,0.61875 -0.668997,1.10903 -1.118173,1.089515 -0.449176,-0.0195 -5.370088,-2.550765 -10.935358,-5.625 z"
         id="path515"
         inkscape:connector-curvature="0" />
      <path
         style="fill:#afe7e6;stroke-width:0.5"
         d="M 11.120876,250.42087 C 10.634717,249.93471 10.5,239.03425 10.5,200.18347 v -49.61652 l 2.125,-1.70968 c 7.337068,-5.90309 35.528686,-25.90528 36.166575,-25.6605 0.642853,0.24669 0.724022,2.80251 0.600843,18.91922 L 49.25,160.75 34.606986,193.67904 c -8.053657,18.11097 -14.691157,33.18597 -14.75,33.5 -0.05884,0.31403 0.118014,0.54122 0.393014,0.50487 0.275,-0.0363 15.58632,-4.81986 34.025155,-10.63001 l 33.52516,-10.56392 23.468065,0.13001 c 20.99382,0.1163 23.48422,0.21387 23.62119,0.92548 0.0842,0.43752 -3.54813,8.35924 -8.07187,17.60384 -6.80548,13.9075 -8.42715,16.85544 -9.39635,17.08112 -1.23189,0.28685 -10.04308,1.01899 -66.17135,5.49833 -18.975,1.51431 -35.626856,2.87922 -37.004125,3.03314 -1.665061,0.18608 -2.712162,0.0718 -3.124999,-0.34103 z M 206.79889,176.63221 c -0.1644,-0.16438 -0.29889,-2.50595 -0.29889,-5.20348 0,-4.89626 0.0196,-4.9733 11.52568,-45.29166 6.33912,-22.21289 11.71373,-40.575425 11.94357,-40.805635 0.22983,-0.230215 0.58904,-0.141625 0.79823,0.196855 0.57308,0.927255 4.25424,48.32589 3.84012,49.44536 -0.60096,1.62453 -26.31612,41.4498 -26.93372,41.71244 -0.31686,0.13475 -0.71061,0.11051 -0.87499,-0.0539 z M 38,79.77133 C 32.9125,76.935905 28.458502,74.346465 28.102226,74.01702 27.582082,73.536045 27.514241,69.214645 27.757904,52.084015 27.924802,40.350306 28.153402,30.287319 28.265903,29.721819 28.438261,28.855447 33.571199,26.829254 60.88203,16.846819 78.7084,10.331069 93.680935,5 94.154335,5 c 1.077555,0 49.848935,30.01305 50.207095,30.896564 0.14416,0.35561 0.16228,0.746391 0.0402,0.868401 -0.12201,0.122011 -9.20606,3.036384 -20.18677,6.476384 L 104.25,49.495896 76.881395,49.497948 49.512793,49.5 49.381396,67.125 C 49.253062,84.339285 49.226697,84.75206 48.25,84.838325 47.7,84.886905 43.0875,82.606755 38,79.77133 Z"
         id="path513"
         inkscape:connector-curvature="0" />
      <path
         style="fill:#b0efd8;stroke-width:0.5"
         d="m 11.144856,250.40066 c -0.356327,-0.4457 -0.438731,-16.27662 -0.261591,-50.25514 l 0.258603,-49.60448 1.054066,-0.96503 c 2.046534,-1.87366 35.066204,-25.73232 35.929066,-25.96088 0.820126,-0.21723 0.879968,0.87721 0.954222,17.45155 0.04357,9.72583 0.04807,18.06667 0.01,18.5352 -0.05211,0.6412 -8.49403,20.29199 -13.595937,31.64812 -3.230049,7.18963 -15.583857,35.58492 -15.652038,35.97628 -0.05018,0.28805 0.133762,0.49398 0.408762,0.45763 0.275,-0.0363 15.58632,-4.81986 34.025155,-10.63001 l 33.52516,-10.56392 23.468066,0.13001 c 20.99382,0.1163 23.48422,0.21387 23.62119,0.92548 0.0842,0.43752 -3.54813,8.35924 -8.07187,17.60384 -6.80548,13.9075 -8.42715,16.85544 -9.39635,17.08112 -1.23189,0.28685 -10.04308,1.01899 -66.171352,5.49833 -18.975,1.51431 -35.644114,2.88138 -37.042475,3.03793 -1.777768,0.19903 -2.698936,0.0889 -3.062669,-0.36603 z M 206.79889,176.63221 c -0.1644,-0.16438 -0.29889,-2.50595 -0.29889,-5.20348 0,-4.89626 0.0196,-4.9733 11.52568,-45.29166 6.33912,-22.21289 11.71373,-40.575425 11.94357,-40.805635 0.22983,-0.230215 0.58904,-0.141625 0.79823,0.196855 0.57308,0.927255 4.25424,48.32589 3.84012,49.44536 -0.60096,1.62453 -26.31612,41.4498 -26.93372,41.71244 -0.31686,0.13475 -0.71061,0.11051 -0.87499,-0.0539 z M 38.1036,79.331985 27.957199,73.75 28.288,51.75 C 28.518073,36.448954 28.791025,29.579653 29.1844,29.190562 29.49548,28.882871 33.0125,27.446745 37,25.99917 40.9875,24.551595 45.6,22.867015 47.25,22.25566 62.494945,16.607126 92.03064,5.8050915 93.10764,5.484231 94.261875,5.1403625 95.2732,5.572668 99.85764,8.3696075 102.82344,10.179022 112,15.744583 120.25,20.73752 c 21.99436,13.311087 24.25,14.753678 24.25,15.509067 0,0.377314 -0.39375,0.803592 -0.875,0.947284 -0.48125,0.143693 -8.8625,2.802605 -18.625,5.908694 L 107.25,48.75 l -29,0.25 -29,0.25 -0.131601,17.4816 c -0.07238,9.61488 -0.297381,17.639275 -0.5,17.83199 -0.20262,0.19271 -4.93428,-2.16151 -10.514799,-5.231605 z"
         id="path511"
         inkscape:connector-curvature="0" />
      <path
         style="fill:#90e8ca;stroke-width:0.5"
         d="m 11,200.58715 v -49.91284 l 1.125,-1.03166 c 2.085655,-1.91262 35.116542,-25.79351 36,-26.02752 0.82174,-0.21766 0.875,0.894 0.875,18.26352 v 18.49528 l -14.75,33.38875 c -8.1125,18.36381 -14.75,33.57968 -14.75,33.81303 0,0.23336 0.16875,0.42393 0.375,0.42349 0.20625,-4.4e-4 15.3375,-4.72508 33.625,-10.4992 l 33.25,-10.49841 23.84549,-0.001 c 13.70854,-4.6e-4 23.9645,0.19177 24.12545,0.45218 0.37921,0.61358 -15.98483,33.9907 -16.81402,34.29493 -0.36131,0.13256 -10.33192,1.02759 -22.15692,1.98895 C 50.110965,247.44725 12.113233,250.5 11.568696,250.5 11.147566,250.5 11,237.54853 11,200.58715 Z m 195.98478,-29.42049 -0.0152,-5.41666 11.36607,-39.88305 c 6.61115,-23.19823 11.58534,-39.810275 11.89022,-39.70909 0.31957,0.10606 1.27555,9.65746 2.44931,24.47147 l 1.92516,24.29751 -13.31989,20.66158 c -7.32593,11.36387 -13.536,20.73658 -13.80015,20.82824 -0.28715,0.0996 -0.4864,-2.01151 -0.4955,-5.25 z M 38.1036,79.331985 27.957199,73.75 28.288,51.75 C 28.518073,36.448954 28.791025,29.579653 29.1844,29.190562 29.49548,28.882871 33.0125,27.446745 37,25.99917 40.9875,24.551595 45.6,22.867015 47.25,22.25566 62.208345,16.713317 92.021045,5.8078555 93.066405,5.4960575 94.677,5.0156675 92.740465,3.9207083 120,20.724893 c 24.59343,15.160658 24.72878,15.249184 24.16352,15.803799 -0.22744,0.223155 -8.73852,3.063157 -18.91352,6.311115 L 106.75,48.745185 78,48.997593 49.25,49.25 49.118399,66.7316 c -0.07238,9.61488 -0.297381,17.639275 -0.5,17.83199 -0.20262,0.19271 -4.93428,-2.16151 -10.514799,-5.231605 z"
         id="path509"
         inkscape:connector-curvature="0" />
      <path
         style="fill:#6de4b5;stroke-width:0.5"
         d="M 11.347168,250.1805 C 11.156226,249.98956 11,227.49637 11,200.19565 v -49.63769 l 5.625,-4.17649 c 3.09375,-2.29707 8.4375,-6.20816 11.875,-8.69131 3.4375,-2.48316 9.255999,-6.68976 12.929998,-9.34801 3.673999,-2.65825 6.880249,-4.70942 7.125,-4.55816 C 48.80141,123.93628 49,131.94005 49,141.7189 v 17.65988 l -15.065371,34.09524 c -8.893371,20.12706 -14.881579,34.27903 -14.616749,34.54386 0.264831,0.26483 14.374405,-3.94834 34.44037,-10.28402 L 87.75,207.00122 l 23.14069,-5e-4 c 18.71512,-5e-4 23.18917,0.12571 23.39416,0.65989 0.29082,0.75787 -15.24137,32.79287 -16.32207,33.66413 -0.76678,0.61818 -0.33824,0.5799 -60.46278,5.40166 -22.1375,1.77534 -41.500024,3.35693 -43.027832,3.51464 -1.527807,0.1577 -2.934057,0.13051 -3.125,-0.0604 z M 207.34166,175.675 C 207.15375,175.48708 207,173.34851 207,170.92263 c 0,-4.2486 0.41537,-5.86734 11.30128,-44.04167 6.21571,-21.79703 11.49075,-39.832255 11.72232,-40.07828 0.67566,-0.71784 0.83642,0.75515 2.68822,24.63213 1.32061,17.02777 1.62296,22.95045 1.21248,23.75 -0.57521,1.1204 -25.34641,39.78695 -25.91279,40.44852 -0.18049,0.21083 -0.48192,0.22958 -0.66984,0.0417 z M 39.48513,80.074675 C 35.214452,77.696105 30.87427,75.24607 29.840282,74.63015 L 27.960305,73.510305 28.290575,51.63015 C 28.520048,36.427666 28.793149,29.583959 29.185422,29.205947 29.882151,28.534547 92.963915,5.5 94.105865,5.5 c 0.94696,0 -0.05,-0.5992802 28.122525,16.904967 11.81311,7.339768 21.48811,13.541416 21.5,13.781439 0.0119,0.240024 -8.52839,3.163282 -18.97839,6.496129 l -19,6.059722 L 77.5,48.996128 49.25,49.25 49.118603,66.875 c -0.122076,16.374905 -0.193004,17.62143 -1,17.574675 -0.477732,-0.0277 -4.362795,-1.996425 -8.633473,-4.375 z"
         id="path507"
         inkscape:connector-curvature="0" />
      <path
         style="fill:#64d1d0;stroke-width:0.5"
         d="M 11.330868,233.41838 C 11.148891,224.29848 11,201.92403 11,183.69736 v -33.1394 l 5.625,-4.17649 c 3.09375,-2.29707 8.4375,-6.20816 11.875,-8.69131 3.4375,-2.48316 9.255999,-6.68976 12.929998,-9.34801 3.673999,-2.65825 6.880249,-4.70942 7.125,-4.55816 C 48.80136,123.93625 49,131.9135 49,141.65502 v 17.59601 l -4.268707,9.49949 C 32.658101,195.61793 19,226.87454 19,227.63668 c 0,0.47483 0.28125,0.86296 0.625,0.86253 C 19.96875,228.49876 35.2125,223.77412 53.5,218 l 33.25,-10.49841 23.625,-0.001 c 15.34423,-5e-4 23.625,0.17365 23.625,0.4969 0,0.41966 -15.74671,32.91568 -16.14125,33.31023 -0.0741,0.0741 -15.65383,1.39279 -34.621705,2.93052 -18.967875,1.53773 -42.696351,3.46315 -52.729946,4.27871 C 20.473503,249.33272 12.128644,250 11.962967,250 11.79729,250 11.512845,242.53827 11.330868,233.41838 Z M 207.5,170.58654 v -5.08012 l 11.01356,-38.62821 C 224.57101,105.63269 229.67635,87.9125 229.85874,87.5 c 0.23679,-0.53552 0.37629,-0.39253 0.48782,0.5 0.2015,1.612535 3.65344,45.20559 3.65344,46.13765 0,0.55992 -25.2636,40.29262 -26.24124,41.27025 -0.14232,0.14232 -0.25876,-2.02729 -0.25876,-4.82136 z M 39.48513,80.074675 C 35.214452,77.696105 30.87427,75.24607 29.840282,74.63015 L 27.960305,73.510305 28.290575,51.63015 C 28.520048,36.427666 28.793149,29.583959 29.185422,29.205947 29.882151,28.534547 92.963915,5.5 94.105865,5.5 95.0488,5.5 96.72988,6.4976735 111.5,15.822938 c 5.9125,3.732915 15.25,9.605007 20.75,13.049093 11.8775,7.43766 11.52538,7.184233 10.65659,7.669902 -0.36113,0.201876 -9.34094,3.085573 -19.95515,6.408214 L 103.65287,48.991313 76.45144,49.120657 49.25,49.25 49.118603,66.875 c -0.122076,16.374905 -0.193004,17.62143 -1,17.574675 -0.477732,-0.0277 -4.362795,-1.996425 -8.633473,-4.375 z"
         id="path505"
         inkscape:connector-curvature="0" />
      <path
         style="fill:#4dd9ac;stroke-width:0.5"
         d="m 11.5,200.59808 v -49.40192 l 1.625,-1.53049 C 14.837436,148.05283 47.72099,124 48.21354,124 48.371093,124 48.5,132.10123 48.5,142.00274 v 18.00274 L 33.75,193.39066 C 25.6375,211.75251 19,227.16377 19,227.63792 c 0,0.47414 0.28125,0.86172 0.625,0.86129 C 19.96875,228.49876 35.2125,223.77412 53.5,218 l 33.25,-10.49841 23.625,-0.001 c 15.34423,-5e-4 23.625,0.17365 23.625,0.4969 0,0.41966 -15.74671,32.91568 -16.14125,33.31023 -0.0741,0.0741 -15.65383,1.39279 -34.621705,2.93052 -18.967875,1.53773 -42.696351,3.46315 -52.729946,4.27871 C 20.473503,249.33272 12.092254,250 11.882099,250 11.671945,250 11.5,227.76914 11.5,200.59808 Z m 196,-30.01154 v -5.08012 l 11.01356,-38.62821 C 224.57101,105.63269 229.67635,87.9125 229.85874,87.5 c 0.23679,-0.53552 0.37629,-0.39253 0.48782,0.5 0.2015,1.612535 3.65344,45.20559 3.65344,46.13765 0,0.55992 -25.2636,40.29262 -26.24124,41.27025 -0.14232,0.14232 -0.25876,-2.02729 -0.25876,-4.82136 z M 38,78.759765 28.75,73.61264 28.624502,70.93132 c -0.06902,-1.474725 0.04348,-11.419765 0.25,-22.100091 L 29.25,29.412459 61.25,17.709054 C 78.85,11.272182 93.644765,6.004379 94.12726,6.002825 c 0.48249,-0.00155 5.88249,3.0629655 12,6.810043 19.72453,12.081609 36.89678,22.821518 37.15322,23.236458 0.13741,0.222332 -3.63824,1.637641 -8.39032,3.145131 -4.75209,1.507491 -13.02766,4.16025 -18.39016,5.89502 l -9.75,3.154128 -29,0.253197 -29,0.253198 -0.131397,17.625 c -0.101607,13.629295 -0.271637,17.614445 -0.75,17.578445 C 47.528371,83.92784 43.0875,81.590685 38,78.759765 Z"
         id="path503"
         inkscape:connector-curvature="0" />
      <path
         style="fill:#2dcaad;stroke-width:0.5"
         d="M 11.849108,249.68244 C 11.657099,249.49043 11.5,227.25043 11.5,200.26021 v -49.07312 l 1.393888,-1.33543 c 0.766639,-0.73449 5.885389,-4.58694 11.375,-8.56102 5.489612,-3.97407 12.937726,-9.37772 16.551364,-12.00811 3.613638,-2.63039 6.819888,-4.78253 7.125,-4.78253 0.395726,0 0.554748,4.99842 0.554748,17.43696 v 17.43697 l -14.810041,33.43803 c -8.145522,18.39092 -14.916711,33.91791 -15.047084,34.50443 -0.527229,2.37185 -3.028169,3.04101 44.362875,-11.86999 L 88.2615,207.5 h 22.58974 c 12.42436,0 22.68693,0.16875 22.80572,0.375 0.11879,0.20625 -3.39485,7.74935 -7.80808,16.76246 -6.14304,12.54585 -8.26726,16.44351 -9.06148,16.6266 -1.09679,0.25282 -10.50268,1.03147 -66.0374,5.46678 -18.975,1.51545 -35.411652,2.87807 -36.525893,3.02803 -1.11424,0.14997 -2.18299,0.11558 -2.374999,-0.0764 z M 207.81253,174.14587 c -0.17189,-0.1719 -0.31253,-1.84755 -0.31253,-3.72367 0,-2.94259 1.52198,-8.75159 11.08056,-42.29166 6.09432,-21.3843 11.15682,-38.97429 11.25,-39.088875 0.0932,-0.11458 0.25403,-0.11458 0.35741,0 0.20707,0.229485 3.30478,38.710475 3.46294,43.017835 l 0.0988,2.6905 -12.81231,19.8542 c -7.04677,10.91981 -12.95295,19.71356 -13.12485,19.54167 z M 38,78.759765 28.75,73.61264 28.624502,70.93132 c -0.06902,-1.474725 0.04348,-11.419765 0.25,-22.100091 L 29.25,29.412459 61.25,17.709054 C 78.85,11.272182 93.639005,6.004379 94.11445,6.002825 c 0.47545,-0.00155 9.81295,5.580377 20.75,12.404291 10.93706,6.823913 21.6293,13.484702 23.76055,14.801752 2.13125,1.317051 3.875,2.553402 3.875,2.747448 0,0.194046 -1.18125,0.741027 -2.625,1.215513 -1.44375,0.474487 -9.7125,3.161184 -18.375,5.970437 L 105.75,48.25 77.25,48.5 48.75,48.75 48.618603,66.375 c -0.101607,13.629295 -0.271637,17.614445 -0.75,17.578445 C 47.528371,83.92784 43.0875,81.590685 38,78.759765 Z"
         id="path501"
         inkscape:connector-curvature="0" />
      <path
         style="fill:#22d78e;stroke-width:0.5"
         d="M 12,200.11332 V 150.6328 l 4.875,-3.56315 c 2.68125,-1.95974 9.7125,-7.03989 15.625,-11.28924 5.9125,-4.24935 11.69679,-8.41331 12.853979,-9.25325 C 46.511168,125.68722 47.579918,125 47.728979,125 47.87804,125 48,132.84772 48,142.43939 v 17.43939 l -15.06756,34.10019 c -13.012361,29.44896 -14.970768,34.19699 -14.357936,34.80982 0.612832,0.61283 1.662089,0.39788 7.69256,-1.57589 3.840615,-1.25703 19.354842,-6.20667 34.476061,-10.99921 L 88.23625,207.5 h 22.60237 c 12.4313,0 22.69955,0.16875 22.81835,0.375 0.11878,0.20625 -3.39485,7.74935 -7.80809,16.76246 -6.12884,12.51686 -8.26909,16.44522 -9.06147,16.63203 -1.75126,0.41288 -80.944532,6.72945 -90.78741,7.24133 -5.0875,0.26459 -10.31875,0.61651 -11.625,0.78204 L 12,249.59384 Z m 195.81253,-25.96745 c -0.17189,-0.1719 -0.31253,-1.84755 -0.31253,-3.72367 0,-2.94259 1.52198,-8.75159 11.08056,-42.29166 6.09432,-21.3843 11.15682,-38.97429 11.25,-39.088875 0.0932,-0.11458 0.25403,-0.11458 0.35741,0 0.20707,0.229485 3.30478,38.710475 3.46294,43.017835 l 0.0988,2.6905 -12.81231,19.8542 c -7.04677,10.91981 -12.95295,19.71356 -13.12485,19.54167 z M 38.109236,78.517805 28.468471,73.25 28.797039,51.5 C 28.977751,39.5375 29.266095,29.620072 29.437803,29.461271 29.752844,29.169912 39.368839,25.667512 67.75,15.506953 76.275,12.454972 85.68897,9.0627945 88.66993,7.968781 l 5.419935,-1.989116 3.580065,2.1947235 c 1.96904,1.207098 9.09257,5.6250725 15.83007,9.8177215 6.7375,4.192648 16.01875,9.859619 20.625,12.593269 4.60625,2.733649 8.375,5.143281 8.375,5.354738 0,0.370716 -4.72885,1.891497 -27.25,8.76351 l -10.5,3.203928 -27.643675,0.278256 c -15.20402,0.153041 -27.860271,0.41212 -28.125,0.575731 -0.291627,0.180235 -0.495176,6.838053 -0.516468,16.892968 -0.01933,9.12752 -0.188078,16.941 -0.375,17.363295 -0.274689,0.620575 -2.188503,-0.24231 -9.980621,-4.5 z"
         id="path499"
         inkscape:connector-curvature="0" />
      <path
         style="fill:#1cce98;stroke-width:0.5"
         d="M 12,200.10238 V 150.6328 l 4.875,-3.56315 c 2.68125,-1.95974 9.7125,-7.03989 15.625,-11.28924 5.9125,-4.24935 11.69679,-8.41331 12.853979,-9.25325 C 46.511168,125.68722 47.579918,125 47.728979,125 47.87804,125 48,132.84772 48,142.43939 v 17.43939 l -15.06756,34.10019 c -12.836782,29.0516 -14.965026,34.20267 -14.375,34.79236 0.589925,0.5896 1.86469,0.32439 8.601852,-1.78958 9.470761,-2.97171 9.629956,-2.99144 8.636516,-1.07034 -0.401429,0.77629 -1.082207,1.70384 -1.512839,2.06123 -0.430633,0.35739 -0.782969,1.016 -0.782969,1.46358 0,0.66796 -2.762299,6.54227 -4.497209,9.56378 -0.236852,0.4125 -0.552131,1.0875 -0.700619,1.5 -0.148489,0.4125 -0.948397,1.875 -1.777574,3.25 -0.829177,1.375 -1.723517,2.98696 -1.987423,3.58213 -0.401207,0.90482 -1.037525,1.13257 -3.883502,1.38994 -1.87202,0.16929 -4.584923,0.42977 -6.028673,0.57884 L 12,249.57195 Z M 38.109236,78.517805 28.468471,73.25 28.797039,51.5 C 28.977751,39.5375 29.266095,29.620072 29.437803,29.461271 29.752844,29.169912 39.368839,25.667512 67.75,15.506953 76.275,12.454972 85.694185,9.060847 88.681525,7.9644535 l 5.43152,-1.993443 4.31848,2.679946 c 2.375155,1.4739695 11.602165,7.1825015 20.504455,12.6856235 8.9023,5.503123 16.37863,10.34991 16.61408,10.770638 0.28806,0.514736 0.10456,1.137996 -0.56098,1.905375 -0.544,0.627229 -0.98908,1.505925 -0.98908,1.952658 0,2.650996 -2.59937,3.87131 -18.5,8.685103 l -10.75,3.25448 -27.643675,0.279616 c -15.20402,0.15379 -27.860271,0.413481 -28.125,0.577092 -0.291627,0.180235 -0.495176,6.838053 -0.516468,16.892968 -0.01933,9.12752 -0.188078,16.941 -0.375,17.363295 -0.274689,0.620575 -2.188503,-0.24231 -9.980621,-4.5 z"
         id="path497"
         inkscape:connector-curvature="0" />
      <path
         style="fill:#16c4a6;stroke-width:0.5"
         d="M 12.007657,193.1914 12,150.6328 l 4.875,-3.56315 c 2.68125,-1.95974 9.7125,-7.03989 15.625,-11.28924 5.9125,-4.24935 11.69679,-8.41331 12.853979,-9.25325 C 46.511168,125.68722 47.579918,125 47.728979,125 47.87804,125 48,132.84861 48,142.44136 v 17.44136 l -5.437681,12.18364 C 39.571594,178.76736 34.366264,190.4375 30.99492,198 c -3.371345,7.5625 -6.557623,14.3588 -7.08062,15.10289 -0.522996,0.74409 -1.20463,2.09408 -1.514741,3 -0.310111,0.90591 -1.687493,3.67211 -3.06085,6.14711 -1.373356,2.475 -3.351268,6.1875 -4.39536,8.25 -1.044092,2.0625 -2.130028,4.0875 -2.413192,4.5 -0.354994,0.51714 -0.517221,-12.46371 -0.5225,-41.8086 z M 38.109236,78.517805 28.468471,73.25 28.797039,51.5 C 28.977751,39.5375 29.266095,29.620072 29.437803,29.461271 29.752844,29.169912 39.368839,25.667512 67.75,15.506953 c 8.525,-3.051981 17.935145,-6.44273 20.91143,-7.534998 2.976285,-1.092268 5.676285,-1.8300405 6,-1.6394945 5.40512,3.1815955 25.84475,16.0535655 26.56215,16.7276675 1.08097,1.015712 1.14638,0.809779 -2.04556,6.439872 -0.70159,1.2375 -2.84314,5.2875 -4.759,9 -1.91587,3.7125 -3.75016,6.987015 -4.0762,7.2767 -0.32605,0.289686 -1.71782,0.889842 -3.09282,1.333681 -2.13007,0.68757 -6.5905,0.847429 -30.143675,1.080333 -15.20402,0.150344 -27.860271,0.407216 -28.125,0.570828 -0.291627,0.180235 -0.495176,6.838053 -0.516468,16.892968 -0.01933,9.12752 -0.188078,16.941 -0.375,17.363295 -0.274689,0.620575 -2.188503,-0.24231 -9.980621,-4.5 z"
         id="path495"
         inkscape:connector-curvature="0" />
      <path
         style="fill:#11bbb3;stroke-width:0.5"
         d="M 12,174.14973 V 150.6328 l 4.875,-3.56315 c 2.68125,-1.95974 9.7125,-7.03989 15.625,-11.28924 5.9125,-4.24935 11.69679,-8.4133 12.853979,-9.25324 1.157189,-0.83994 2.225939,-1.52717 2.375,-1.52717 0.768124,0 0.156552,4.42678 -0.828916,6 -1.590244,2.5387 -2.751162,4.57522 -3.420296,6 -0.322879,0.6875 -1.220772,2.4875 -1.995317,4 -0.774545,1.5125 -2.592747,5.1125 -4.040449,8 -1.447702,2.8875 -3.138135,6.06677 -3.756517,7.06504 -0.618382,0.99827 -1.726782,3.24827 -2.46311,5 -0.736328,1.75173 -1.763038,3.78219 -2.281576,4.51214 C 28.424259,166.30713 28,167.1724 28,167.5 c 0,0.32759 -0.418135,1.19286 -0.929188,1.92282 C 25.464751,171.71679 23,176.41432 23,177.18131 c 0,0.40444 -0.20755,0.81035 -0.461222,0.90202 -0.253672,0.0917 -2.606664,4.41341 -5.228871,9.60387 -2.622206,5.19046 -4.889657,9.55922 -5.038778,9.70834 C 12.122008,197.54466 12,187.08404 12,174.14973 Z M 38.109236,78.517805 28.468471,73.25 28.797039,51.5 C 28.977751,39.5375 29.266095,29.620072 29.437803,29.461271 29.752844,29.169912 39.368839,25.667512 67.75,15.506953 76.275,12.454972 85.68839,9.0630105 88.668645,7.9692605 l 5.41865,-1.988636 3.08135,1.8614175 c 9.837415,5.942694 11.012305,7.055414 9.113495,8.631284 -0.39482,0.327675 -0.85603,1.224819 -1.02489,1.993656 -0.16886,0.768836 -0.74582,1.86888 -1.28213,2.444544 C 103.4388,21.487189 103,22.274751 103,22.661664 c 0,0.386912 -0.45,1.275559 -1,1.974771 -0.55,0.699212 -1,1.483544 -1,1.74296 0,0.259416 -0.60089,1.573927 -1.335305,2.921135 -0.734415,1.347208 -1.72791,3.191015 -2.207765,4.097347 -0.47985,0.906332 -1.091945,1.918832 -1.36021,2.25 -0.73027,0.901511 -4.90195,9.074033 -5.483695,10.742826 l -0.506695,1.453499 -20.40392,0.36066 c -11.222155,0.198363 -20.583579,0.471697 -20.803164,0.607408 -0.219585,0.135711 -0.41506,7.71472 -0.434388,16.84224 -0.01933,9.12752 -0.188079,16.941 -0.375,17.363295 -0.274689,0.620575 -2.188504,-0.24231 -9.980622,-4.5 z"
         id="path493"
         inkscape:connector-curvature="0" />
      <path
         style="fill:#0eb4bb;stroke-width:0.5"
         d="m 12,159.60274 v -8.89726 l 2.375,-1.79374 C 17.538598,146.5224 25.784002,141 26.187887,141 c 0.176323,0 0.09957,0.39375 -0.170553,0.875 -0.270126,0.48125 -1.694002,3.35 -3.164168,6.375 -1.470165,3.025 -3.457715,6.7375 -4.416777,8.25 -0.959062,1.5125 -2.051828,3.71753 -2.42837,4.90006 -0.376543,1.18254 -0.863481,2.26061 -1.082085,2.39572 -0.218604,0.1351 -0.841216,1.24882 -1.383582,2.47493 C 12.999985,167.49682 12.431079,168.5 12.278115,168.5 12.125152,168.5 12,164.49624 12,159.60274 Z M 38.109236,78.535955 28.468471,73.25 28.797039,51.5 C 28.977751,39.5375 29.266095,29.620072 29.437803,29.461271 29.609511,29.302471 34.8125,27.348131 41,25.118295 47.1875,22.888458 57.875,19.035976 64.75,16.557224 84.50238,9.435585 93.04908,6.5 94.03072,6.5 c 0.500645,0 1.059025,0.240703 1.240845,0.534896 0.181825,0.2941925 -1.003715,3.162943 -2.63453,6.375 C 83.069585,32.253979 76.79719,44.343229 76.2468,45 c -0.345685,0.4125 -0.782795,1.25625 -0.971355,1.875 -0.30798,1.010634 -0.682505,1.131758 -3.68414,1.191482 C 69.75359,48.103048 63.8625,48.271798 58.5,48.441482 L 48.75,48.75 48.5,66.08404 c -0.1375,9.53372 -0.3625,17.4249 -0.5,17.535955 -0.1375,0.111055 -4.588344,-2.176765 -9.890764,-5.08404 z"
         id="path491"
         inkscape:connector-curvature="0" />
      <path
         style="fill:#08aac9;stroke-width:0.5"
         d="M 34.60644,76.418925 28.46288,73.35005 28.794243,51.550025 C 28.976493,39.560011 29.266095,29.620072 29.437803,29.461271 29.712227,29.207477 43.539918,24.166667 57.5,19.231351 62.65316,17.409551 75.949865,13 76.29022,13 76.4056,13 76.5,13.3375 76.5,13.75 c 0,0.4125 -0.225,0.75 -0.5,0.75 -0.275,0 -0.5,0.415128 -0.5,0.922506 0,0.507379 -0.45,1.329751 -1,1.827494 -0.55,0.497743 -1,1.289772 -1,1.760064 0,0.470292 -0.454815,1.433282 -1.0107,2.139977 -0.55589,0.706695 -1.338655,2.214404 -1.73948,3.350465 -0.400825,1.13606 -1.180425,2.699852 -1.732445,3.475092 -0.55202,0.77524 -1.45392,2.391624 -2.00422,3.591965 C 66.462855,32.767904 65.8095,34.0875 65.56125,34.5 65.313,34.9125 64.49622,36.6 63.746175,38.25 62.99613,39.9 61.846405,41.966237 61.19123,42.841639 60.536055,43.717041 60,44.898291 60,45.466639 60,46.034987 59.775,46.5 59.5,46.5 c -0.275,0 -0.5,0.316416 -0.5,0.703147 0,0.545383 -1.11272,0.741704 -4.95939,0.875 -2.727665,0.09452 -5.146413,0.358749 -5.374999,0.587176 C 48.437025,48.893751 48.1375,53.50625 48,58.915325 47.759754,68.36629 47.696852,68.857295 46.387802,71.5 c -0.749209,1.5125 -1.565658,3.0875 -1.814332,3.5 -0.248674,0.4125 -0.813294,1.59375 -1.254713,2.625 -0.497487,1.16224 -1.138275,1.87268 -1.685667,1.8689 -0.4857,-0.0035 -3.647692,-1.387095 -7.02665,-3.074975 z"
         id="path489"
         inkscape:connector-curvature="0" />
      <path
         style="fill:#04a3d3;stroke-width:0.5"
         d="m 29.079657,50.89359 -0.02745,-21.319414 3.0989,-1.081019 C 44.973828,24.020079 54.27051,20.983558 54.769305,21.105506 55.371475,21.252728 53.307945,25.793168 48.56818,34.75 47.258462,37.225 44.373104,42.7375 42.156273,47 39.939442,51.2625 36.48745,57.9 34.48518,61.75 32.482909,65.6 30.453734,69.529175 29.975901,70.481505 29.136972,72.1535 29.106169,71.48031 29.079657,50.89359 Z"
         id="path487"
         inkscape:connector-curvature="0" />
    </g>
  </g>
  <g
     inkscape:groupmode="layer"
     id="layer6"
     inkscape:label="red"
     style="display:inline"
     transform="translate(0,-216)"
     sodipodi:insensitive="true">
    <g
       id="g415"
       transform="matrix(0.15625,0,0,0.15625,0,216)">
      <path
         style="fill:#e6adcb;stroke-width:0.5"
         d="M 153.66782,243.88178 C 151.6559,241.75201 130.5,216.03778 130.5,215.72213 c 0,-0.13316 1.01576,-2.26462 2.25725,-4.73658 l 2.25726,-4.49446 26.07614,0.12946 c 17.69935,0.0879 26.13249,0.29853 26.25153,0.65579 0.17103,0.51329 -30.88748,37.8221 -31.71562,38.09814 -0.22949,0.0765 -1.11092,-0.59522 -1.95874,-1.4927 z M 19.158693,227.125 C 19.42768,225.82128 47.63212,161.70121 48.17571,161.15762 49.334133,159.9992 49.5,162.8639 49.5,184.02951 V 206.5 h 17.97049 c 16.34477,0 19.68767,0.2252 18.08116,1.21808 C 84.776695,208.19702 20.314462,228.5 19.568747,228.5 c -0.492256,0 -0.611352,-0.39936 -0.410054,-1.375 z m 187.723737,-63.25 c -0.0647,-0.0687 -0.23341,-25.775 -0.375,-57.125 L 206.25,49.75 156.125,49.622597 C 113.0887,49.513211 106,49.394233 106,48.78129 c 0,-0.392646 0.39375,-0.828896 0.875,-0.969444 2.14145,-0.625404 34.42876,-10.731901 44.375,-13.890155 C 226.58324,10.000935 253.05097,1.8509708 253.60458,2.4045856 254.10942,2.9094193 251.26577,13.041828 218.00556,129.25 c -9.38504,32.79052 -10.26683,35.53542 -11.12313,34.625 z M 20.236046,127.73364 c -3.227909,-6.24555 -6.113892,-12.00454 -6.413294,-12.79774 -0.449569,-1.19105 -0.229741,-2.72596 1.262336,-8.81405 0.993686,-4.05451 4.105765,-16.77611 6.91573,-28.27021 3.322936,-13.592395 5.308323,-20.832235 5.679105,-20.709225 0.381594,0.126605 0.652734,2.88095 0.820077,8.33067 l 0.25,8.141535 10.375,5.72859 10.375,5.728595 v 18.901035 18.90104 l -10.851157,7.88632 c -5.968136,4.33748 -11.232017,7.98592 -11.697513,8.10765 -0.666902,0.1744 -2.090761,-2.18642 -6.715284,-11.13421 z M 35.180726,26.249774 C 34.68218,24.950584 39.068554,6.9423085 39.967582,6.597319 40.834838,6.264522 53.00092,18.766271 52.998475,19.987741 c -10e-4,0.530662 -2.469675,1.65566 -8.125001,3.702729 -4.467911,1.617259 -8.402828,3.046854 -8.744259,3.176877 -0.341432,0.130024 -0.768252,-0.147884 -0.948489,-0.617573 z"
         id="path429"
         inkscape:connector-curvature="0" />
      <path
         style="fill:#d894a2;stroke-width:0.5"
         d="m 143.10999,230.40783 c -7.01401,-8.51358 -11.60373,-14.50102 -11.59419,-15.125 0.009,-0.56806 0.85245,-2.60783 1.875,-4.53283 l 1.8592,-3.5 25.625,-0.12954 c 20.33393,-0.10279 25.62495,4.5e-4 25.62475,0.5 -3.6e-4,0.88745 -30.4148,36.87954 -31.16437,36.87954 -0.33847,0 -5.83989,-6.34148 -12.22539,-14.09217 z M 20,227.07893 c 0,-0.23158 2.731141,-6.58784 6.069203,-14.125 3.338061,-7.53716 9.535642,-21.57776 13.772401,-31.20133 4.236759,-9.62357 7.918118,-17.71232 8.180797,-17.975 C 48.325866,163.47413 48.5,171.13895 48.5,184.8 c 0,16.05555 0.151938,21.65194 0.6,22.1 0.44232,0.44232 4.91767,0.6 17.02951,0.6 15.139925,0 18.430235,0.27694 14.500215,1.22046 -0.75885,0.18219 -14.544875,4.48212 -30.635613,9.55539 C 33.903373,223.34913 20.572123,227.5 20.369112,227.5 20.1661,227.5 20,227.31052 20,227.07893 Z M 207.38687,160.975 c -0.0622,-0.12375 -0.23097,-25.3125 -0.375,-55.975 L 206.75,49.25 157.125,49.122574 C 129.83125,49.052489 107.5,48.8091 107.5,48.58171 c 0,-0.22739 8.94375,-3.232774 19.875,-6.678631 C 224.93046,11.150674 252.73185,2.5318527 253.12027,2.9202718 253.50561,3.3056172 211.44414,151.64588 209.14784,158 c -0.78907,2.18342 -1.52978,3.4348 -1.76097,2.975 z m -183.024312,-26.6 c -1.220133,-2.26875 -4.096158,-7.78289 -6.391165,-12.25365 l -4.172741,-8.12866 3.901876,-16.121345 C 19.84656,89.004605 22.842555,76.63125 24.358294,70.375 25.874033,64.11875 27.307477,59 27.543725,59 c 0.236248,0 0.491807,3.31875 0.567908,7.375 L 28.25,73.75 l 5.125,2.875 c 2.81875,1.58125 7.43125,4.16875 10.25,5.75 l 5.125,2.875 v 18.7439 18.7439 L 38,130.60382 c -5.9125,4.32631 -10.900529,7.8728 -11.084508,7.8811 -0.18398,0.008 -1.3328,-1.84117 -2.552934,-4.10992 z M 35.5,25.558665 C 35.5,23.963199 39.52672,7.7808975 40.055833,7.25 40.38752,6.9171955 42.543499,8.8399445 46.503312,13 c 4.990528,5.242891 6.746648,7.5 5.835303,7.5 -0.08876,0 -3.841139,1.35 -8.338615,3 -4.497476,1.65 -8.249854,3 -8.338615,3 C 35.572623,26.5 35.5,26.076399 35.5,25.558665 Z"
         id="path427"
         inkscape:connector-curvature="0" />
      <path
         style="fill:#d25ca3;stroke-width:0.5"
         d="m 144,230.96026 c -5.9125,-7.16356 -11.1529,-13.55947 -11.64533,-14.21312 -0.87881,-1.16653 -0.85794,-1.26283 1.13058,-5.2178 L 135.51116,207.5 h 25.28608 c 16.7647,0 25.22949,0.1698 25.11813,0.50387 -0.35689,1.07068 -30.03952,35.99571 -30.58654,35.98859 -0.31835,-0.004 -5.41633,-5.86864 -11.32883,-13.0322 z M 20.120726,226.9327 C 20.91221,224.94612 47.642877,164.67788 47.921072,164.25271 48.101982,163.97622 48.3625,173.5375 48.5,185.5 l 0.25,21.75 16.5,0.25 c 9.075,0.1375 16.275,0.39461 16,0.57137 -0.369515,0.2375 -36.836326,11.84775 -60.450636,19.24619 -0.674191,0.21123 -0.871539,0.0993 -0.678638,-0.38486 z M 207.8473,158.18064 C 207.65628,157.98962 207.5,133.5869 207.5,103.95238 207.5,55.636365 207.41885,49.990279 206.71428,49.285714 206.01084,48.58227 200.86969,48.5 157.61428,48.5 c -28.42396,0 -48.11873,-0.184089 -47.83928,-0.447158 0.26125,-0.245937 6.6625,-2.373396 14.225,-4.727686 7.5625,-2.354291 31.3,-9.809311 52.75,-16.566711 C 247.38886,4.5050634 252.5654,2.8987391 252.81997,3.1533055 253.09907,3.4324093 251.04194,10.734445 227.01534,94.75 207.98506,161.29452 208.67571,159.00904 207.8473,158.18064 Z M 20.536926,126.30115 C 17.216617,119.86679 14.5,114.13917 14.5,113.57309 c 0,-1.18054 12.371761,-52.111515 12.75054,-52.490295 0.137203,-0.137205 0.252906,2.54429 0.257117,5.95887 0.0042,3.414585 0.172961,6.456045 0.375,6.758795 C 28.084695,74.103215 32.75,76.83536 38.25,79.8719 l 10,5.520975 v 18.672825 18.67282 l -10.460503,7.63074 C 32.036221,134.56616 27.159087,138 26.951423,138 c -0.207664,0 -3.094187,-5.26448 -6.414497,-11.69885 z M 35.998424,25.178494 c -0.0029,-1.701852 4.103616,-17.7280865 4.503897,-17.5771175 0.216733,0.081743 2.925542,2.8042065 6.019574,6.0499195 3.57822,3.753635 5.451535,6.075275 5.147455,6.379354 -0.262935,0.262933 -3.50235,1.582836 -7.198705,2.933119 -3.696354,1.350282 -7.114395,2.609895 -7.595645,2.799139 -0.642515,0.252659 -0.875418,0.09738 -0.876576,-0.584414 z"
         id="path425"
         inkscape:connector-curvature="0" />
      <path
         style="fill:#c44e76;stroke-width:0.5"
         d="m 143.5,229.76042 c -6.1875,-7.52962 -11.30211,-13.98727 -11.36581,-14.35032 -0.0637,-0.36306 0.72381,-2.2351 1.75,-4.1601 l 1.86581,-3.5 25.125,-0.12963 c 13.81875,-0.0713 25.125,-2.1e-4 25.125,0.15795 0,0.62631 -30.17638,35.72007 -30.69509,35.697 -0.3052,-0.0136 -5.61741,-6.18528 -11.80491,-13.7149 z m 64.33269,-72.81831 c -0.17547,-0.65566 -0.32211,-24.96979 -0.32587,-54.0314 C 207.50071,55.547545 207.41857,49.99 206.71428,49.285714 206.0109,48.582326 200.89242,48.5 157.86428,48.5 c -28.32017,0 -47.86915,-0.18391 -47.58928,-0.447703 0.26125,-0.246237 8.0125,-2.813751 17.225,-5.705589 9.2125,-2.891836 32.8375,-10.346537 52.5,-16.566 C 241.2012,6.422099 252.55968,2.8930123 252.82163,3.1549664 253.10282,3.436154 248.47764,19.869803 231.96793,77.25 c -6.09258,21.175 -13.65167,47.47921 -16.79799,58.45379 -3.14631,10.97458 -6.01254,20.51103 -6.36939,21.19211 l -0.64882,1.23832 z M 21,125.88411 c -3.1625,-6.10506 -5.81433,-11.55775 -5.892957,-12.11711 -0.07863,-0.55935 1.643342,-8.5545 3.826595,-17.767 2.183253,-9.2125 4.812296,-20.35 5.842316,-24.75 1.030021,-4.4 2.064303,-8.21375 2.298405,-8.475 C 27.311363,62.510515 27.5,64.88985 27.5,68.14373 v 5.843725 l 1.875,1.160285 c 1.03125,0.638155 5.772485,3.284725 10.536078,5.88127 l 8.661077,4.72099 -0.161077,18.39362 c -0.137507,15.702 -0.270828,18.45856 -0.911078,18.8374 -0.4125,0.24409 -2.55,1.71536 -4.75,3.2695 C 30.430696,134.95323 27.453461,136.99924 27.119451,136.9921 26.916253,136.98776 24.1625,131.98916 21,125.88411 Z M 36,25.056776 c 0,-0.444778 3.313262,-14.516196 3.816862,-16.210211 0.147717,-0.4968895 0.530602,-0.8343895 0.850857,-0.75 C 41.840509,8.4056035 52.17846,19.521529 51.71446,19.974618 51.20137,20.475642 37.403641,25.5 36.540835,25.5 36.243376,25.5 36,25.300549 36,25.056776 Z"
         id="path423"
         inkscape:connector-curvature="0" />
      <path
         style="fill:#ba4355;stroke-width:0.5"
         d="m 182,209 c -0.4832,-0.90287 -0.38025,-1 1.0599,-1 1.56341,0 1.57712,0.0198 0.6901,1 -0.49775,0.55 -0.9747,1 -1.0599,1 -0.0852,0 -0.39575,-0.45 -0.6901,-1 z m 27.13745,-61.14041 c -0.99127,-1.09128 -1.01324,-1.9139 -1.33117,-49.84308 -0.17779,-26.80342 -0.49544,-48.905667 -0.70588,-49.116108 -0.21044,-0.210441 -21.25209,-0.536152 -46.75922,-0.723802 -25.50713,-0.187649 -46.19988,-0.499388 -45.98389,-0.692752 0.21599,-0.193364 6.13021,-2.208249 13.14271,-4.477522 7.0125,-2.269273 15,-4.876199 17.75,-5.793169 2.75,-0.91697 12.48125,-4.040055 21.625,-6.940188 9.14375,-2.900133 23.99375,-7.620273 33,-10.489199 C 234.45689,8.767763 252.03702,3.3703573 252.34212,3.6754558 252.79449,4.1278225 225.75563,98.454145 213.47937,139.25 c -1.15854,3.85 -2.21722,7.50957 -2.35261,8.13239 -0.35273,1.62261 -0.84221,1.74002 -1.98931,0.4772 z M 36.676416,24.125 c 0.134092,-0.48125 0.961967,-4.025 1.839722,-7.875 0.877755,-3.85 1.762916,-7.180961 1.967026,-7.4021355 0.204109,-0.2211745 2.777023,2.1264345 5.717587,5.2169085 3.704438,3.893291 5.147274,5.728818 4.697864,5.976469 C 50.11406,20.473579 37.198785,25 36.749749,25 c -0.174425,0 -0.207425,-0.39375 -0.07333,-0.875 z"
         id="path421"
         inkscape:connector-curvature="0" />
      <path
         style="fill:#b53d45;stroke-width:0.5"
         d="m 222.75,94.71735 c -1.1,-1.21726 -2.38224,-2.338145 -2.84943,-2.49085 -0.46718,-0.15271 -0.98672,-0.710235 -1.15452,-1.238945 -0.16781,-0.52871 -0.90668,-1.24962 -1.64195,-1.602025 -0.73526,-0.352405 -1.79073,-1.36351 -2.34547,-2.246905 -0.55474,-0.8834 -1.34613,-1.727075 -1.75863,-1.874845 -0.4125,-0.14777 -1.70625,-1.710255 -2.875,-3.47219 L 208,78.588075 V 63.89404 C 208,53.13201 207.83944,49.039445 207.4,48.6 206.96063,48.160637 202.87778,48 192.15,48 c -8.0575,0 -14.65,-0.188884 -14.65,-0.419742 0,-0.230859 -0.5625,-0.676035 -1.25,-0.989281 -0.6875,-0.313246 -1.25,-0.978127 -1.25,-1.477514 0,-0.499548 -1.10192,-1.748307 -2.44966,-2.776111 -1.34731,-1.027473 -2.5891,-2.423708 -2.75953,-3.102743 C 169.62039,38.555574 169.16872,38 168.78711,38 c -0.57473,0 -2.97448,-2.47826 -4.22199,-4.36011 -0.17332,-0.261444 -0.711,-0.691257 -1.19484,-0.955141 -0.67798,-0.36976 1.90192,-1.381244 11.25,-4.410704 6.67134,-2.162004 15.05472,-4.891241 18.62972,-6.064973 3.575,-1.173732 14.4875,-4.642527 24.25,-7.708434 9.7625,-3.065908 21.52156,-6.76925 26.13125,-8.22965 4.60968,-1.4603996 8.46574,-2.5125581 8.569,-2.33813 0.10326,0.1744281 -3.4733,13.029642 -7.94792,28.567142 -7.63108,26.49786 -11.55396,39.901825 -18.10863,61.875 -0.43067,1.44375 -0.92044,2.609375 -1.08838,2.590275 C 224.88739,96.946175 223.85,95.93461 222.75,94.71735 Z"
         id="path419"
         inkscape:connector-curvature="0" />
      <path
         style="fill:#b03936;stroke-width:0.5"
         d="m 231.73496,62.956605 c -1.36673,-1.619625 -2.87871,-3.075095 -3.35996,-3.23438 -0.48125,-0.159285 -0.875,-0.48997 -0.875,-0.73485 0,-0.244885 -2.25363,-2.76097 -5.00806,-5.59131 C 212.02284,42.638463 208.13338,38.551483 204.5,34.490456 c -2.0625,-2.305254 -5.47314,-5.911486 -7.5792,-8.013848 l -3.8292,-3.822475 16.3292,-5.301071 C 233.95456,9.388483 251.58461,3.9179411 251.85313,4.1864612 252.08774,4.4210769 242.11589,39.625819 236.87209,57.075685 l -2.65218,8.825685 z"
         id="path417"
         inkscape:connector-curvature="0" />
    </g>
  </g>
  <g
     inkscape:groupmode="layer"
     id="layer1"
     inkscape:label="white"
     style="display:inline"
     sodipodi:insensitive="true">
    <path
       style="display:inline;fill:#000000;stroke-width:0.07812579"
       d="M 7.656,20.00025 V 7.6565 H 20 32.344 V 20.00025 32.344 H 20 7.656 Z m 11.562734,8.47656 V 27.73462 H 14.609266 9.9997975 v 0.74219 0.74219 h 4.6094685 4.609468 z m 8.281418,-8.24219 v -0.9375 h -2.226608 -2.226607 v -4.17968 -4.17969 h -1.132836 -1.132835 v 5.11719 5.11718 h 3.359443 3.359443 z m -12.447311,0.7757 c 2.336576,-0.31991 3.994027,-1.83612 4.446119,-4.06723 0.221554,-1.0934 0.07854,-2.14467 -0.439673,-3.2319 -0.370634,-0.77761 -0.952225,-1.43628 -1.698171,-1.92323 -1.234447,-0.80584 -1.881974,-0.92834 -4.907204,-0.92834 h -2.297861 v 5.11719 5.11719 h 2.142827 c 1.178556,0 2.417838,-0.0377 2.753963,-0.0837 z m -2.631119,-5.03513 v -3.10331 l 1.19143,0.0391 c 1.568124,0.0515 2.002634,0.19276 2.682673,0.872 0.667953,0.66717 0.847597,1.14042 0.847597,2.23285 0,0.68006 -0.03169,0.90005 -0.185322,1.28665 -0.232319,0.58459 -0.807786,1.17632 -1.450379,1.49135 -0.452468,0.22183 -0.514238,0.23077 -1.777379,0.25723 l -1.30862,0.0274 z"
       id="path346-2"
       inkscape:connector-curvature="0" />
    <rect
       style="fill:#ffffff"
       id="rect129"
       width="24.688"
       height="24.6875"
       x="7.6560001"
       y="7.6564999" />
  </g>
  <g
     inkscape:groupmode="layer"
     id="layer5"
     inkscape:label="square DL"
     style="display:inline"
     transform="translate(0,-216)"
     sodipodi:insensitive="true">
    <path
       style="fill:#000000;stroke-width:0.078125"
       d="M 7.65625,236 V 223.65625 H 20 32.34375 V 236 248.34375 H 20 7.65625 Z m 11.5625,8.47656 v -0.74219 H 14.609375 10 v 0.74219 0.74219 h 4.609375 4.609375 z M 27.5,236.23437 v -0.9375 h -2.226563 -2.226562 v -4.17968 -4.17969 H 21.914062 20.78125 v 5.11719 5.11718 H 24.140625 27.5 Z m -12.447059,0.7757 c 2.336529,-0.31991 3.993946,-1.83612 4.446029,-4.06723 0.22155,-1.0934 0.07854,-2.14467 -0.439664,-3.2319 -0.370626,-0.77761 -0.952206,-1.43628 -1.698137,-1.92323 -1.234422,-0.80584 -1.881935,-0.92834 -4.907104,-0.92834 H 10.15625 v 5.11719 5.11719 h 2.142784 c 1.178532,0 2.417789,-0.0377 2.753907,-0.0837 z m -2.631066,-5.03513 v -3.10331 l 1.191406,0.0391 c 1.568093,0.0515 2.002594,0.19276 2.682619,0.872 0.667939,0.66717 0.84758,1.14042 0.84758,2.23285 0,0.68006 -0.03169,0.90005 -0.185318,1.28665 -0.232315,0.58459 -0.80777,1.17632 -1.45035,1.49135 -0.452459,0.22183 -0.514228,0.23077 -1.777343,0.25723 l -1.308594,0.0274 z"
       id="path346"
       inkscape:connector-curvature="0" />
  </g>
</svg>
