<?xml version="1.0" encoding="UTF-8" standalone="no"?>
<svg
   viewBox="0 0 96 95.51"
   version="1.1"
   id="svg7"
   sodipodi:docname="VS - Serve-D.svg"
   inkscape:version="1.4.3 (0d15f75042, 2025-12-25)"
   xmlns:inkscape="http://www.inkscape.org/namespaces/inkscape"
   xmlns:sodipodi="http://sodipodi.sourceforge.net/DTD/sodipodi-0.dtd"
   xmlns="http://www.w3.org/2000/svg"
   xmlns:svg="http://www.w3.org/2000/svg"
   xmlns:rdf="http://www.w3.org/1999/02/22-rdf-syntax-ns#"
   xmlns:cc="http://creativecommons.org/ns#"
   xmlns:dc="http://purl.org/dc/elements/1.1/">
  <title
     id="title7">Serve-D LSP</title>
  <sodipodi:namedview
     id="namedview7"
     pagecolor="#ffffff"
     bordercolor="#000000"
     borderopacity="0.25"
     inkscape:showpageshadow="2"
     inkscape:pageopacity="0.0"
     inkscape:pagecheckerboard="0"
     inkscape:deskcolor="#d1d1d1"
     inkscape:zoom="12.145325"
     inkscape:cx="48.00201"
     inkscape:cy="47.755001"
     inkscape:window-width="2560"
     inkscape:window-height="1371"
     inkscape:window-x="0"
     inkscape:window-y="0"
     inkscape:window-maximized="1"
     inkscape:current-layer="svg7" />
  <defs
     id="defs2">
    <style
       id="style1">.a{fill:#fff;}.a,.h{fill-rule:evenodd;}.b{mask:url(#a);}.c{fill:#52218a;}.d{fill:#6c33af;}.e{fill:#854cc7;}.f{fill:#b179f1;}.g{opacity:0.25;}.h{fill:url(#b);}</style>
    <mask
       id="a"
       x="0"
       y="0"
       width="96"
       height="95.51"
       maskUnits="userSpaceOnUse">
      <g
         transform="translate(0 -0.25)"
         id="g1">
        <path
           class="a"
           d="M68.89,95.6a6,6,0,0,0,3.93-.44L92.6,85.65A6,6,0,0,0,96,80.24V15.76a6,6,0,0,0-3.4-5.41L72.82.84A6,6,0,0,0,68.34.55,6,6,0,0,0,66,2L34.12,37.26,15.5,22l-1.63-1.4a4,4,0,0,0-3.61-.83,2.55,2.55,0,0,0-.53.18L2.46,23A4,4,0,0,0,0,26.37c0,.1,0,.2,0,.3V69.33c0,.1,0,.2,0,.3A4,4,0,0,0,2.46,73l7.27,3a2.55,2.55,0,0,0,.53.18,4,4,0,0,0,3.61-.83L15.5,74,34.12,58.74,66,94A6,6,0,0,0,68.89,95.6ZM72,27.68,47.21,48,72,68.32ZM12,34.27,24.41,48,12,61.73Z"
           id="path1" />
      </g>
    </mask>
    <linearGradient
       id="b"
       x1="48"
       y1="97.75"
       x2="48"
       y2="2.25"
       gradientTransform="matrix(1, 0, 0, -1, 0, 98)"
       gradientUnits="userSpaceOnUse">
      <stop
         offset="0"
         stop-color="#fff"
         id="stop1"
         style="stop-color:#ff7d1a;stop-opacity:0.33511105;" />
      <stop
         offset="1"
         stop-color="#fff"
         stop-opacity="0"
         id="stop2"
         style="stop-color:#9d0b12;stop-opacity:0.33583155;" />
    </linearGradient>
  </defs>
  <g
     class="b"
     mask="url(#a)"
     id="g7">
    <path
       class="c"
       d="M 13.87,75.4 A 4,4 0 0 1 9.73,76.05 L 2.46,73 A 4,4 0 0 1 0,69.33 V 26.67 A 4,4 0 0 1 2.46,23 l 7.27,-3 a 4,4 0 0 1 4.14,0.65 L 15.5,22 A 2.21,2.21 0 0 0 12,23.8 v 48.4 a 2.21,2.21 0 0 0 3.5,1.8 z"
       transform="translate(0,-0.25)"
       id="path2"
       inkscape:label="left"
       style="display:inline;fill:#460c0d;fill-opacity:1" />
    <path
       class="d"
       d="M2.46,73A4,4,0,0,1,0,69.33V69a2.31,2.31,0,0,0,4,1.55L66,2A6,6,0,0,1,72.82.84L92.6,10.36A6,6,0,0,1,96,15.77V16a3.79,3.79,0,0,0-6.19-2.93L15.5,74l-1.63,1.4a4,4,0,0,1-4.14.65Z"
       transform="translate(0 -0.25)"
       id="path3"
       inkscape:label="rear"
       style="fill:#691618;fill-opacity:1" />
    <path
       class="e"
       d="M2.46,23A4,4,0,0,0,0,26.67V27a2.31,2.31,0,0,1,4-1.55L66,94a6,6,0,0,0,6.82,1.16L92.6,85.64A6,6,0,0,0,96,80.23V80a3.79,3.79,0,0,1-6.19,2.93L15.5,22l-1.63-1.4A4,4,0,0,0,9.73,20Z"
       transform="translate(0 -0.25)"
       id="path4"
       inkscape:label="front"
       style="fill:#922022;fill-opacity:1" />
    <path
       class="f"
       d="M72.82,95.16A6,6,0,0,1,66,94a3.52,3.52,0,0,0,6-2.49v-87A3.52,3.52,0,0,0,66,2,6,6,0,0,1,72.82.84L92.6,10.35A6,6,0,0,1,96,15.76V80.24a6,6,0,0,1-3.4,5.41Z"
       transform="translate(0 -0.25)"
       id="path5"
       inkscape:label="right"
       style="fill:#a11412;fill-opacity:1" />
    <g
       class="g"
       id="g6">
      <path
         class="h"
         d="m 68.89,95.6 a 6,6 0 0 0 3.93,-0.44 L 92.6,85.65 A 6,6 0 0 0 96,80.24 V 15.76 A 6,6 0 0 0 92.6,10.35 L 72.82,0.84 A 6,6 0 0 0 68.34,0.55 6,6 0 0 0 66,2 L 34.12,37.26 15.5,22 13.87,20.6 A 4,4 0 0 0 10.26,19.77 2.55,2.55 0 0 0 9.73,19.95 L 2.46,23 A 4,4 0 0 0 0,26.37 c 0,0.1 0,0.2 0,0.3 v 42.66 c 0,0.1 0,0.2 0,0.3 A 4,4 0 0 0 2.46,73 l 7.27,3 a 2.55,2.55 0 0 0 0.53,0.18 4,4 0 0 0 3.61,-0.83 L 15.5,74 34.12,58.74 66,94 a 6,6 0 0 0 2.89,1.6 z M 72,27.68 47.21,48 72,68.32 Z M 12,34.27 24.41,48 12,61.73 Z"
         transform="translate(0,-0.25)"
         id="path6"
         inkscape:label="fade"
         style="display:inline" />
    </g>
  </g>
  <metadata
     id="metadata7">
    <rdf:RDF>
      <cc:Work
         rdf:about="">
        <dc:title>Serve-D LSP</dc:title>
        <dc:date>Jan 2026</dc:date>
        <dc:source>Inkscape</dc:source>
        <dc:description>Icon for serve-d</dc:description>
      </cc:Work>
    </rdf:RDF>
  </metadata>
</svg>
